<?xml version="1.0" standalone="no"?>
<!DOCTYPE svg PUBLIC "-//W3C//DTD SVG 20010904//EN"
 "http://www.w3.org/TR/2001/REC-SVG-20010904/DTD/svg10.dtd">
<svg version="1.0" xmlns="http://www.w3.org/2000/svg"
 width="381.000000pt" height="322.000000pt" viewBox="0 0 381.000000 322.000000"
 preserveAspectRatio="xMidYMid meet">

<g transform="translate(0.000000,322.000000) scale(0.100000,-0.100000)"
fill="#000000" stroke="none">
<path d="M1738 3170 c-95 -24 -205 -76 -277 -131 -84 -64 -1168 -1046 -1175
-1064 -12 -32 -6 -46 40 -95 67 -72 87 -69 194 26 l85 76 3 -121 3 -122 177
162 c97 89 227 208 287 264 596 551 588 544 671 582 54 26 69 28 174 28 191 0
161 21 770 -540 96 -89 256 -236 355 -328 l180 -166 5 121 5 120 85 -76 c107
-95 127 -98 194 -26 45 48 52 63 40 94 -5 12 -968 889 -1134 1033 -180 156
-449 220 -682 163z"/>
<path d="M1819 2464 c-55 -17 -133 -82 -160 -135 -33 -66 -41 -134 -24 -203
67 -262 417 -295 535 -50 34 71 33 170 -3 240 -66 130 -209 191 -348 148z
m161 -54 c47 -13 106 -63 130 -110 44 -87 34 -178 -27 -250 -49 -57 -99 -80
-173 -80 -213 0 -307 263 -143 399 58 48 135 63 213 41z"/>
<path d="M1827 1583 c-4 -3 -7 -318 -7 -700 l0 -693 -685 0 -685 0 0 -90 0
-90 1470 0 1470 0 0 90 0 90 -300 0 -300 0 0 700 0 700 -478 0 c-263 0 -482
-3 -485 -7z"/>
<path d="M730 1035 l0 -445 470 0 470 0 0 444 0 445 -470 0 -470 0 0 -444z
m430 200 l0 -155 -180 0 -180 0 0 158 0 157 180 -3 180 -3 0 -154z m440 0 l0
-155 -180 0 -180 0 0 155 0 155 180 0 180 0 0 -155z m-442 -400 c-2 -85 -6
-155 -10 -155 -5 0 -84 0 -178 0 l-170 0 0 155 0 155 180 0 181 0 -3 -155z
m442 0 l0 -155 -180 0 -180 0 0 155 0 155 180 0 180 0 0 -155z"/>
</g>
</svg>
